<mxfile host="Electron" modified="2024-04-27T11:42:23.648Z" agent="Mozilla/5.0 (Windows NT 10.0; Win64; x64) AppleWebKit/537.36 (KHTML, like Gecko) draw.io/24.1.0 Chrome/120.0.6099.109 Electron/28.1.0 Safari/537.36" etag="tCQNfNQC8L42oUUD0B2W" version="24.1.0" type="device">
  <diagram id="C5RBs43oDa-KdzZeNtuy" name="Page-1">
    <mxGraphModel dx="2607" dy="1535" grid="1" gridSize="10" guides="1" tooltips="1" connect="1" arrows="1" fold="1" page="1" pageScale="1" pageWidth="827" pageHeight="1169" math="0" shadow="0">
      <root>
        <mxCell id="WIyWlLk6GJQsqaUBKTNV-0" />
        <mxCell id="WIyWlLk6GJQsqaUBKTNV-1" parent="WIyWlLk6GJQsqaUBKTNV-0" />
        <mxCell id="BPMNUvIE3w2qyrpTZupS-1" value="Srart" style="rounded=0;whiteSpace=wrap;html=1;" vertex="1" parent="WIyWlLk6GJQsqaUBKTNV-1">
          <mxGeometry x="398.75" y="20" width="80" height="40" as="geometry" />
        </mxCell>
        <mxCell id="BPMNUvIE3w2qyrpTZupS-3" value="&lt;div&gt;Условие:&amp;nbsp;&lt;span style=&quot;font-family: Consolas, &amp;quot;Courier New&amp;quot;, monospace; font-size: 14px; white-space: pre;&quot;&gt;if&lt;/span&gt;&lt;span style=&quot;font-family: Consolas, &amp;quot;Courier New&amp;quot;, monospace; font-size: 14px; white-space: pre;&quot;&gt; (&lt;/span&gt;inputArray&lt;span style=&quot;font-family: Consolas, &amp;quot;Courier New&amp;quot;, monospace; font-size: 14px; white-space: pre;&quot;&gt;[&lt;/span&gt;&lt;span style=&quot;font-family: Consolas, &amp;quot;Courier New&amp;quot;, monospace; font-size: 14px; white-space: pre;&quot;&gt;i&lt;/span&gt;&lt;span style=&quot;font-family: Consolas, &amp;quot;Courier New&amp;quot;, monospace; font-size: 14px; white-space: pre;&quot;&gt;]&lt;/span&gt;&lt;span style=&quot;font-family: Consolas, &amp;quot;Courier New&amp;quot;, monospace; font-size: 14px; white-space: pre;&quot;&gt;.&lt;/span&gt;&lt;span style=&quot;font-family: Consolas, &amp;quot;Courier New&amp;quot;, monospace; font-size: 14px; white-space: pre;&quot;&gt;Length&lt;/span&gt;&lt;span style=&quot;font-family: Consolas, &amp;quot;Courier New&amp;quot;, monospace; font-size: 14px; white-space: pre;&quot;&gt; &lt;/span&gt;&lt;span style=&quot;font-family: Consolas, &amp;quot;Courier New&amp;quot;, monospace; font-size: 14px; white-space: pre;&quot;&gt;&amp;lt;=&lt;/span&gt;&lt;span style=&quot;font-family: Consolas, &amp;quot;Courier New&amp;quot;, monospace; font-size: 14px; white-space: pre;&quot;&gt; &lt;/span&gt;&lt;span style=&quot;font-family: Consolas, &amp;quot;Courier New&amp;quot;, monospace; font-size: 14px; white-space: pre;&quot;&gt;3&lt;/span&gt;&lt;span style=&quot;font-family: Consolas, &amp;quot;Courier New&amp;quot;, monospace; font-size: 14px; white-space: pre;&quot;&gt;)&lt;/span&gt;&lt;span style=&quot;background-color: initial;&quot;&gt;&amp;nbsp;&lt;/span&gt;&lt;/div&gt;" style="rhombus;whiteSpace=wrap;html=1;" vertex="1" parent="WIyWlLk6GJQsqaUBKTNV-1">
          <mxGeometry x="275" y="183" width="327.5" height="80" as="geometry" />
        </mxCell>
        <mxCell id="BPMNUvIE3w2qyrpTZupS-5" value="&lt;div style=&quot;font-family: Consolas, &amp;quot;Courier New&amp;quot;, monospace; font-size: 14px; line-height: 19px; white-space: pre;&quot;&gt;&lt;span style=&quot;background-color: rgb(255, 255, 255);&quot;&gt;for (int i = 0; i &amp;lt; &lt;/span&gt;&lt;span style=&quot;font-family: Helvetica; font-size: 12px; white-space: normal;&quot;&gt;inputArray&lt;/span&gt;&lt;span style=&quot;background-color: rgb(255, 255, 255);&quot;&gt;.Length; i++)&lt;/span&gt;&lt;/div&gt;&lt;div style=&quot;font-family: Consolas, &amp;quot;Courier New&amp;quot;, monospace; font-size: 14px; line-height: 19px; white-space: pre;&quot;&gt;&lt;div style=&quot;line-height: 19px;&quot;&gt;&lt;span style=&quot;background-color: rgb(255, 255, 255);&quot;&gt;lenNewArr++&lt;/span&gt;&lt;/div&gt;&lt;/div&gt;" style="rounded=0;whiteSpace=wrap;html=1;" vertex="1" parent="WIyWlLk6GJQsqaUBKTNV-1">
          <mxGeometry x="278.75" y="333" width="330" height="60" as="geometry" />
        </mxCell>
        <mxCell id="BPMNUvIE3w2qyrpTZupS-6" value="" style="endArrow=classic;html=1;rounded=0;exitX=0.5;exitY=1;exitDx=0;exitDy=0;" edge="1" parent="WIyWlLk6GJQsqaUBKTNV-1" source="BPMNUvIE3w2qyrpTZupS-3">
          <mxGeometry width="50" height="50" relative="1" as="geometry">
            <mxPoint x="439" y="373" as="sourcePoint" />
            <mxPoint x="439" y="333" as="targetPoint" />
          </mxGeometry>
        </mxCell>
        <mxCell id="BPMNUvIE3w2qyrpTZupS-7" value="" style="endArrow=classic;html=1;rounded=0;exitX=0.484;exitY=1.011;exitDx=0;exitDy=0;exitPerimeter=0;" edge="1" parent="WIyWlLk6GJQsqaUBKTNV-1" source="BPMNUvIE3w2qyrpTZupS-5" target="BPMNUvIE3w2qyrpTZupS-3">
          <mxGeometry width="50" height="50" relative="1" as="geometry">
            <mxPoint x="438.1399999999999" y="251.86" as="sourcePoint" />
            <mxPoint x="275" y="83" as="targetPoint" />
            <Array as="points">
              <mxPoint x="439" y="430" />
              <mxPoint x="300" y="430" />
              <mxPoint x="175" y="430" />
              <mxPoint x="175" y="223" />
            </Array>
          </mxGeometry>
        </mxCell>
        <mxCell id="BPMNUvIE3w2qyrpTZupS-8" value="" style="endArrow=classic;html=1;rounded=0;exitX=1;exitY=0.5;exitDx=0;exitDy=0;entryX=0.536;entryY=-0.044;entryDx=0;entryDy=0;entryPerimeter=0;" edge="1" parent="WIyWlLk6GJQsqaUBKTNV-1" source="BPMNUvIE3w2qyrpTZupS-3" target="BPMNUvIE3w2qyrpTZupS-12">
          <mxGeometry width="50" height="50" relative="1" as="geometry">
            <mxPoint x="575" y="423" as="sourcePoint" />
            <mxPoint x="439" y="713" as="targetPoint" />
            <Array as="points">
              <mxPoint x="685" y="223" />
              <mxPoint x="685" y="470" />
              <mxPoint x="439" y="470" />
            </Array>
          </mxGeometry>
        </mxCell>
        <mxCell id="BPMNUvIE3w2qyrpTZupS-9" value="" style="endArrow=classic;html=1;rounded=0;exitX=0.5;exitY=1;exitDx=0;exitDy=0;entryX=0.5;entryY=0;entryDx=0;entryDy=0;" edge="1" parent="WIyWlLk6GJQsqaUBKTNV-1" source="BPMNUvIE3w2qyrpTZupS-10" target="BPMNUvIE3w2qyrpTZupS-3">
          <mxGeometry width="50" height="50" relative="1" as="geometry">
            <mxPoint x="438.75" y="180" as="sourcePoint" />
            <mxPoint x="605" y="240" as="targetPoint" />
          </mxGeometry>
        </mxCell>
        <mxCell id="BPMNUvIE3w2qyrpTZupS-10" value="&lt;div&gt;Ввод&lt;/div&gt;inputArray&amp;nbsp;=&amp;nbsp;&lt;span style=&quot;background-color: initial; font-family: -apple-system, BlinkMacSystemFont, &amp;quot;Segoe WPC&amp;quot;, &amp;quot;Segoe UI&amp;quot;, system-ui, Ubuntu, &amp;quot;Droid Sans&amp;quot;, sans-serif; font-size: 14px; text-align: start;&quot;&gt;&lt;font color=&quot;#0000ff&quot;&gt;[“Hello”, “2”, “world”, “:-)”]&lt;/font&gt;&lt;/span&gt;&lt;span style=&quot;background-color: initial; color: rgb(204, 204, 204); font-family: -apple-system, BlinkMacSystemFont, &amp;quot;Segoe WPC&amp;quot;, &amp;quot;Segoe UI&amp;quot;, system-ui, Ubuntu, &amp;quot;Droid Sans&amp;quot;, sans-serif; font-size: 14px; text-align: start;&quot;&gt;&amp;nbsp;&lt;/span&gt;" style="shape=parallelogram;perimeter=parallelogramPerimeter;whiteSpace=wrap;html=1;fixedSize=1;" vertex="1" parent="WIyWlLk6GJQsqaUBKTNV-1">
          <mxGeometry x="278.75" y="100" width="320" height="60" as="geometry" />
        </mxCell>
        <mxCell id="BPMNUvIE3w2qyrpTZupS-11" value="" style="endArrow=classic;html=1;rounded=0;exitX=0.5;exitY=1;exitDx=0;exitDy=0;entryX=0.5;entryY=0;entryDx=0;entryDy=0;" edge="1" parent="WIyWlLk6GJQsqaUBKTNV-1" source="BPMNUvIE3w2qyrpTZupS-1" target="BPMNUvIE3w2qyrpTZupS-10">
          <mxGeometry width="50" height="50" relative="1" as="geometry">
            <mxPoint x="415" y="110" as="sourcePoint" />
            <mxPoint x="555" y="70" as="targetPoint" />
          </mxGeometry>
        </mxCell>
        <mxCell id="BPMNUvIE3w2qyrpTZupS-12" value="&lt;span style=&quot;font-family: Consolas, &amp;quot;Courier New&amp;quot;, monospace; font-size: 14px; white-space: pre; background-color: rgb(255, 255, 255);&quot;&gt;Получаю длинну нового массива lenNewArr&lt;/span&gt;" style="rounded=0;whiteSpace=wrap;html=1;" vertex="1" parent="WIyWlLk6GJQsqaUBKTNV-1">
          <mxGeometry x="251" y="492" width="350" height="30" as="geometry" />
        </mxCell>
        <mxCell id="BPMNUvIE3w2qyrpTZupS-13" value="&lt;div&gt;Условие:&amp;nbsp;&lt;span style=&quot;font-family: Consolas, &amp;quot;Courier New&amp;quot;, monospace; font-size: 14px; white-space: pre;&quot;&gt;if&lt;/span&gt;&lt;span style=&quot;font-family: Consolas, &amp;quot;Courier New&amp;quot;, monospace; font-size: 14px; white-space: pre;&quot;&gt; (&lt;/span&gt;inputArray&lt;span style=&quot;font-family: Consolas, &amp;quot;Courier New&amp;quot;, monospace; font-size: 14px; white-space: pre;&quot;&gt;[&lt;/span&gt;&lt;span style=&quot;font-family: Consolas, &amp;quot;Courier New&amp;quot;, monospace; font-size: 14px; white-space: pre;&quot;&gt;i&lt;/span&gt;&lt;span style=&quot;font-family: Consolas, &amp;quot;Courier New&amp;quot;, monospace; font-size: 14px; white-space: pre;&quot;&gt;]&lt;/span&gt;&lt;span style=&quot;font-family: Consolas, &amp;quot;Courier New&amp;quot;, monospace; font-size: 14px; white-space: pre;&quot;&gt;.&lt;/span&gt;&lt;span style=&quot;font-family: Consolas, &amp;quot;Courier New&amp;quot;, monospace; font-size: 14px; white-space: pre;&quot;&gt;Length&lt;/span&gt;&lt;span style=&quot;font-family: Consolas, &amp;quot;Courier New&amp;quot;, monospace; font-size: 14px; white-space: pre;&quot;&gt; &lt;/span&gt;&lt;span style=&quot;font-family: Consolas, &amp;quot;Courier New&amp;quot;, monospace; font-size: 14px; white-space: pre;&quot;&gt;&amp;lt;=&lt;/span&gt;&lt;span style=&quot;font-family: Consolas, &amp;quot;Courier New&amp;quot;, monospace; font-size: 14px; white-space: pre;&quot;&gt; &lt;/span&gt;&lt;span style=&quot;font-family: Consolas, &amp;quot;Courier New&amp;quot;, monospace; font-size: 14px; white-space: pre;&quot;&gt;3&lt;/span&gt;&lt;span style=&quot;font-family: Consolas, &amp;quot;Courier New&amp;quot;, monospace; font-size: 14px; white-space: pre;&quot;&gt;)&lt;/span&gt;&lt;span style=&quot;background-color: initial;&quot;&gt;&amp;nbsp;&lt;/span&gt;&lt;/div&gt;" style="rhombus;whiteSpace=wrap;html=1;" vertex="1" parent="WIyWlLk6GJQsqaUBKTNV-1">
          <mxGeometry x="276.25" y="702" width="327.5" height="100" as="geometry" />
        </mxCell>
        <mxCell id="BPMNUvIE3w2qyrpTZupS-14" value="" style="endArrow=classic;html=1;rounded=0;exitX=0.533;exitY=0.98;exitDx=0;exitDy=0;exitPerimeter=0;" edge="1" parent="WIyWlLk6GJQsqaUBKTNV-1" source="BPMNUvIE3w2qyrpTZupS-12" target="BPMNUvIE3w2qyrpTZupS-15">
          <mxGeometry width="50" height="50" relative="1" as="geometry">
            <mxPoint x="400" y="522" as="sourcePoint" />
            <mxPoint x="450" y="472" as="targetPoint" />
          </mxGeometry>
        </mxCell>
        <mxCell id="BPMNUvIE3w2qyrpTZupS-15" value="&lt;div style=&quot;font-family: Consolas, &amp;quot;Courier New&amp;quot;, monospace; font-size: 14px; line-height: 19px; white-space: pre;&quot;&gt;Создаю новый массив известной длинны&lt;/div&gt;&lt;div style=&quot;font-family: Consolas, &amp;quot;Courier New&amp;quot;, monospace; font-size: 14px; line-height: 19px; white-space: pre;&quot;&gt;string[] newArray = new string[lenNewArr]&lt;/div&gt;" style="rounded=0;whiteSpace=wrap;html=1;" vertex="1" parent="WIyWlLk6GJQsqaUBKTNV-1">
          <mxGeometry x="275" y="550" width="330" height="100" as="geometry" />
        </mxCell>
        <mxCell id="BPMNUvIE3w2qyrpTZupS-16" value="&lt;div style=&quot;font-family: Consolas, &amp;quot;Courier New&amp;quot;, monospace; font-size: 14px; line-height: 19px; white-space: pre;&quot;&gt;&lt;span style=&quot;background-color: rgb(255, 255, 255);&quot;&gt;Цикл перебирает исходный массив и записывает элементы &lt;/span&gt;&lt;/div&gt;&lt;div style=&quot;font-family: Consolas, &amp;quot;Courier New&amp;quot;, monospace; font-size: 14px; line-height: 19px; white-space: pre;&quot;&gt;&lt;span style=&quot;background-color: rgb(255, 255, 255);&quot;&gt;удовлетворяющие условию в новый массив&lt;/span&gt;&lt;/div&gt;&lt;div style=&quot;font-family: Consolas, &amp;quot;Courier New&amp;quot;, monospace; font-size: 14px; line-height: 19px; white-space: pre;&quot;&gt;&lt;span style=&quot;background-color: rgb(255, 255, 255);&quot;&gt;for (int i = 0; i &amp;lt; &lt;/span&gt;&lt;span style=&quot;font-family: Helvetica; font-size: 12px; white-space: normal;&quot;&gt;inputArray&lt;/span&gt;&lt;span style=&quot;background-color: rgb(255, 255, 255);&quot;&gt;.Length; i++)&lt;/span&gt;&lt;/div&gt;&lt;div style=&quot;font-family: Consolas, &amp;quot;Courier New&amp;quot;, monospace; font-size: 14px; line-height: 19px; white-space: pre;&quot;&gt;&lt;div style=&quot;line-height: 19px;&quot;&gt;&lt;span style=&quot;background-color: rgb(255, 255, 255);&quot;&gt;newArray[j] = inputArray[i]&lt;/span&gt;&lt;/div&gt;&lt;div style=&quot;line-height: 19px;&quot;&gt;&lt;span style=&quot;background-color: rgb(255, 255, 255);&quot;&gt;j= j+1&lt;/span&gt;&lt;/div&gt;&lt;/div&gt;" style="rounded=0;whiteSpace=wrap;html=1;" vertex="1" parent="WIyWlLk6GJQsqaUBKTNV-1">
          <mxGeometry x="202.25" y="842" width="475" height="125" as="geometry" />
        </mxCell>
        <mxCell id="BPMNUvIE3w2qyrpTZupS-17" value="" style="endArrow=classic;html=1;rounded=0;exitX=0.5;exitY=1;exitDx=0;exitDy=0;" edge="1" parent="WIyWlLk6GJQsqaUBKTNV-1" source="BPMNUvIE3w2qyrpTZupS-13" target="BPMNUvIE3w2qyrpTZupS-16">
          <mxGeometry width="50" height="50" relative="1" as="geometry">
            <mxPoint x="640" y="712" as="sourcePoint" />
            <mxPoint x="690" y="662" as="targetPoint" />
          </mxGeometry>
        </mxCell>
        <mxCell id="BPMNUvIE3w2qyrpTZupS-18" value="" style="endArrow=classic;html=1;rounded=0;entryX=0;entryY=0.5;entryDx=0;entryDy=0;" edge="1" parent="WIyWlLk6GJQsqaUBKTNV-1" source="BPMNUvIE3w2qyrpTZupS-16" target="BPMNUvIE3w2qyrpTZupS-13">
          <mxGeometry width="50" height="50" relative="1" as="geometry">
            <mxPoint x="440" y="970" as="sourcePoint" />
            <mxPoint x="690" y="662" as="targetPoint" />
            <Array as="points">
              <mxPoint x="440" y="990" />
              <mxPoint x="120" y="990" />
              <mxPoint x="120" y="752" />
            </Array>
          </mxGeometry>
        </mxCell>
        <mxCell id="BPMNUvIE3w2qyrpTZupS-19" value="Вывод&lt;div&gt;newArray =&amp;nbsp;&lt;span style=&quot;background-color: rgb(255, 255, 255); font-family: Onest, Roboto, &amp;quot;San Francisco&amp;quot;, &amp;quot;Helvetica Neue&amp;quot;, Helvetica, Arial; font-size: 15px; text-align: start;&quot;&gt;&lt;font color=&quot;#3333ff&quot;&gt;[“2”, “:-)”]&lt;/font&gt;&lt;/span&gt;&lt;/div&gt;" style="shape=parallelogram;perimeter=parallelogramPerimeter;whiteSpace=wrap;html=1;fixedSize=1;" vertex="1" parent="WIyWlLk6GJQsqaUBKTNV-1">
          <mxGeometry x="334.38" y="1057" width="208.75" height="60" as="geometry" />
        </mxCell>
        <mxCell id="BPMNUvIE3w2qyrpTZupS-20" value="" style="endArrow=classic;html=1;rounded=0;exitX=1;exitY=0.5;exitDx=0;exitDy=0;entryX=0.5;entryY=0;entryDx=0;entryDy=0;" edge="1" parent="WIyWlLk6GJQsqaUBKTNV-1" source="BPMNUvIE3w2qyrpTZupS-13" target="BPMNUvIE3w2qyrpTZupS-19">
          <mxGeometry width="50" height="50" relative="1" as="geometry">
            <mxPoint x="560" y="937" as="sourcePoint" />
            <mxPoint x="610" y="887" as="targetPoint" />
            <Array as="points">
              <mxPoint x="750" y="752" />
              <mxPoint x="750" y="1027" />
              <mxPoint x="440" y="1027" />
            </Array>
          </mxGeometry>
        </mxCell>
        <mxCell id="BPMNUvIE3w2qyrpTZupS-22" value="" style="endArrow=classic;html=1;rounded=0;entryX=0.5;entryY=0;entryDx=0;entryDy=0;exitX=0.5;exitY=1;exitDx=0;exitDy=0;" edge="1" parent="WIyWlLk6GJQsqaUBKTNV-1" source="BPMNUvIE3w2qyrpTZupS-15" target="BPMNUvIE3w2qyrpTZupS-13">
          <mxGeometry width="50" height="50" relative="1" as="geometry">
            <mxPoint x="370" y="630" as="sourcePoint" />
            <mxPoint x="420" y="580" as="targetPoint" />
          </mxGeometry>
        </mxCell>
      </root>
    </mxGraphModel>
  </diagram>
</mxfile>
